<mxfile modified="2023-06-14T19:27:17.732Z" host="app.diagrams.net" agent="Mozilla/5.0 (Windows NT 10.0; Win64; x64) AppleWebKit/537.36 (KHTML, like Gecko) Chrome/113.0.0.0 Safari/537.36" etag="zzOg_IaWdzbsV6UuDzwC" version="21.3.8" type="github">
  <diagram id="WI9T0HZ2pTsCkuznbFz-" name="Page-1">
    <mxGraphModel dx="1467" dy="807" grid="1" gridSize="10" guides="1" tooltips="1" connect="1" arrows="1" fold="1" page="1" pageScale="1" pageWidth="1169" pageHeight="827" math="0" shadow="0">
      <root>
        <mxCell id="0" />
        <mxCell id="1" parent="0" />
        <mxCell id="FCUGS_Y5EDNopGS5kR34-1" value="" style="image;html=1;image=img/lib/clip_art/networking/Firewall_02_128x128.png" vertex="1" parent="1">
          <mxGeometry x="570" width="55" height="80" as="geometry" />
        </mxCell>
        <mxCell id="FCUGS_Y5EDNopGS5kR34-2" value="" style="endArrow=none;html=1;rounded=0;entryX=0.5;entryY=1;entryDx=0;entryDy=0;" edge="1" parent="1" source="FCUGS_Y5EDNopGS5kR34-7" target="FCUGS_Y5EDNopGS5kR34-1">
          <mxGeometry width="50" height="50" relative="1" as="geometry">
            <mxPoint x="600" y="840" as="sourcePoint" />
            <mxPoint x="630" y="160" as="targetPoint" />
          </mxGeometry>
        </mxCell>
        <mxCell id="FCUGS_Y5EDNopGS5kR34-4" value="" style="whiteSpace=wrap;html=1;aspect=fixed;" vertex="1" parent="1">
          <mxGeometry x="600" y="400" width="570" height="570" as="geometry" />
        </mxCell>
        <mxCell id="FCUGS_Y5EDNopGS5kR34-3" value="" style="shape=image;verticalLabelPosition=bottom;labelBackgroundColor=default;verticalAlign=top;aspect=fixed;imageAspect=0;image=data:image/png,iVBORw0KGgoAAAANSUhEUgAAAFEAAABaCAYAAADASLr1AAAAAXNSR0IArs4c6QAAAARnQU1BAACxjwv8YQUAAAAJcEhZcwAADsMAAA7DAcdvqGQAAB6oSURBVHhe7Z3pk9zGecZfAHPsfXJ53xQlkrqs25YtHylfSSp2vuTfyJdUqlxJ2daXVCVVuZz8Hfnkyoc4TuzYsnVat0SKN5dcLvfg3ju7M4MB8vwa6OHsck+KlClZL9ULTKMBdD/9vEc3GlCQpklqybIljYqZJUqB0u2Spmm+97l4LIKgoD8lC5JGNa3N/K/VZn5h1pg3C9s57Aq1ymYgBmtj7+Qzh39a15/AovJ+izofA8RKWrn6T1YZ+Vfr767b3EJqDQj5uawrbeWMGPXohJUG/tyCVCAuDP+dpZP/bt07Aovnpd1bBBH2taaMcbcoGViaMTQ/1pqQfNOy8+mQkkCkzpPz+6w0+Be3M3FWTNwqiF4ARZbVGg1tE0EHKAIuClMrRLIQYSu0nzrMbpO2UtbeenjCiv3fF4jxYrp47Z9taeQn1tdV2xREDwYXiQVaZcns5mxgU7OptonNLTasEZsVBFxbObTuTlKQpQ6zDplc1KFYSAWyrgdL82uysxpgz9r7ScoCkXrF0UmLer9nQaO+kFZG/mXrIOYo1gVUZdns+rjZ++dCO3MhsbNXazYyUbNaLbW2QmC9nQXbuaNke3dFdmiP2f7dZnuGzHb0mXV1pFYqCmwx1QnXzQG734Esl1LVKXBMDLv/7M5ApFELiogmps3OD5u9+k5qH55PbGy6bgvLDYVLiZXCQIwrWGdHyfp7Qts5kCiltnNQIPab9XYF1imWdraZtSvBTtTEAavIwbE0v+cKW5DL7xPYDEQRKThpaeefbh1ETxS2danx+JTZheHAPjjfsNfeq9noeGK7hyI7sCfKvJeusVgJBXRos/OJVSp1i+PYIqlxe1tovT0FG+wv2q7B0LFz9w6xVGkgZymAenV3GK4GUpVp4ti6/wmIB7FmJyzp+BOLfvyjv3mxPv+KvPKrqnjDqjVVaI0aeTV2PaAwaQIQrwZ28Vpqw6N1AZ/Yow8W7MtPlOzE0YId2B06Bhak1sSY1WosUBs2v2g2s2DqrFD2M9LvQHY1scWl1JaqSsup9tUBS4EtabtcVWV1P+wvdjirRL79PYk3QXE6aI3o2DaYKBABEA9MI89fNXvtfbNzV1K7MR5bR1tqf/RcZF99umBdnVnjsZkzit9n5hKlhttOz6XKC3QfAViJVC6xWL0SWMOKUuUOsbS7q2j9vZFsZ+BMwNCATMBAoOjBnHOC6aE8v2Np3rlNorKjerbivBYpPo54Ji4lD1pc+o4FcW3egbh8/d82BFEmLnPrcijzYtLpy2Yvv2N25bqJZWa71NBvP28CMfPAS8rjRjTSeXKdB/hTs2Y3bppduxGIwdqKxdfHqnZzJnEsbShEKisQ6+kuCsDA9u5Mbd8ucwl7OtiDust2St2xnUWxgi3RQKT9VmDvlZSLAlHbpcZxqxe3A6IqST6qPKfGnr5o9tu3zQERx4Gza99+Ps1AlKMARH8ejcKb1fDoAnJOnTA9p2B1OrUpgXdzpq6t9sXSOan54lLBqvVI9wsc40rFRNeMBV5iPWJ5bxc2NbI+sXWwN7ABAdsrlnYKXMKPKBBLdV86HlkBLK2/tbkjlpYEIlKJj1ut8K07AFFAAMIZgfiyQISJOJpdcgrf/JLZC0/eAnGtCpIHM9mSMA9xI7ODAIvHvz4W2MgNsXQ8sNFJgTuLPa2qbKL4EpUObcdgSR1XVNgU2H6xFcc0KK+PulOG5L08DG06KQ+m5E4ARDyIMHEp+KZFP/rh1h2LA0BAUmZSjb0mFgIooKBiRw+YHVQ8SANwBK1C3bkGjaFxMAYPDOCd7Qp1OhTyKHW5ZNbTZdbXLTvYK4/dk1qfEgF7W1kDf+lukhZkTzPPPz4d243Jhl2fSBS3ykbfJPgPnNNarmooK01JpAnOVra2TVm+Xq1pM4ki1FlxYjJocXj0YzLxrUydYeLOnIlfyZmIY1mzM5p/Vu5TlomPjJmZ2WBb1bYiz83EyOSMiZmZTR2fDG1SEcLUXE0OqiaQUtcx3R0FG+gtyZ4WbK9MDGZmVx6bduehE7GoYyf2VMmbHFeX1UCvIZgXzNNScjeYOKZQRd4XJmKPju4XE/euzcS1hNtwTRLXh6Ulndsu7wsbsXMDjolipMKl3u7QumQPu6TOHWIk5WhQoZBkTkX/kiQS82ApoRPgKyqYbzh7e1OdMD1HZGC2IPOByYEUdB5t8LIZG2Eid6snAxYHCnE+rk0czm2iY+IXxcSnNmbiRkLlXf3Z5gkhcKehxIt04JISEQFOalEx5txi4rw+HXtzJlCK1LkCcLEmJseqR6rwSWaivaDOKMkZhTYkdu4UO9kOqqN6u1Mdz8Inb0vXq79nYqXxgC2H37LoxR//UEx8+c6YKOP/cZi4lnBr7uPv5TpU+9yf69JBeOhBjWxwZnuHCIMihT+RGBs5p9NWkt0ME2ukDUUEDcc4gvnFpVDAF7T1Ab5SJXNqS4ppq3VsZwagV3Hfka3imRibgu1QTFQvpfHYP9r0hX/4vTNxI/ENIhG6+H3u0WjIgahjYSZquqAQbF7sZEZpNmfptNLsfKS6Rw68qmjdSBqO+R1tgTqlqM4o2AMHA3voSBbg0w46DmltS8ZEgZ6esLj8xxb99V/95YtLU7+2ZPH1+4KJGwn393XwTogteTgIVBE7SlC+b1dgh/aFdnhfZPt3RQqBFFd2a1wvloZiaVWea0Eguyk84tXZUMBHaidqn12LRFC/WjwTq3GfLcb7LepoL7/YWHzFdnZfFfIa497HILYK9UE7SF792JIAFEdT1LidVJI9bBfbumUGCJcykEnMLkUCXoF9GmmYGqpT5J50bexiL6MjAQpbWyHhGLnjU6m9f3bRorffeuPF3X3X7MmTMqyK0T41IOZb6uQT9fAhkk/UF/Uvw1LFngB4cE9gxw9GduwAs04FqXJBTit043xsIw6MMGivwqM+MZvzdenmPYv0lAAZvl6xl16/ZuHSUkUxmVCRhHTnfS6uM7XFDrtJDuehFbNpn/H5agJQHlYSOqGeLnQSmAMaLjINd2hvaEf2S/XV+cSTgMcYHnJwfdcRuqYDMEcxEKqofSKbWq1VTSPTW7LZY9H7RbCDgMcwkXnNMQXfjFCYNcLxNRstcQxVec7hGFqEE2LajeFmWykVE1M7sNvsyL5s1p1zayrjp+AcLP6CEnDyWNFJ4dNPPWN79+5zyG4bxG0W30yokE+tHtgnxANIoP/hBbO3Tqf2uw9iNzl8RaMnwGS00zoBgdA0nwCVLddk+o2gHXtJ6MSIhnZ5p+XLrhBlgFV7W4ft2X3Awh/84G/tha98TcayoHNXl96mtFR6u+KBWu0oAMIDSmNQ2WmNPD44F9gvXg3sP38V20//r2r/82rd3hagV2+g2sSJ2TU2Eq7XTK1g6V4btSXDKbWBgSF77pkXLPzq175hhw4fViWpZVZoO5JdLpd8Z4P7ryv0OAChbqglATBbxs5x3kDPQpza+aupvfNRw978sCE2Zunts4ldvJaoTOoAhI3rSl5XB5xSvnGyCYY6J2NiZ0eXHdh/xMJl1TqmdtnhfLuB+JsqcRb2xyUa6gpsTzwDOd/NhMvOjU0xBRbYxHTgAnuGeNwPNWXse30SxtVt+EZVZWMXSF++ntibZ6r24aWazVWSjMlb7M07qTfiwFTjw/mFBVVStdxMWu9Ew6mkvB4xk4/LvA3aTqUoSydg7JmlGVbYdO5yaqcvpHb+SurCqCmBhJHHMeA5+X1ztmHT87HVa6lzAjMzqV261hC4sXtOE6pnnHbdQwFEHr6F7GxLVC/AIhbkUWenglEeB2CcAdNVO78k+7TD2zeAbib9djZLZXnYP62Q4txwYK+9Z/aLV2L72a+rbvu6fvNADEbiKQGS1BDysLdVYgHdiFG1PMNV5t4K+KnDtnanZr1UHBD8EIuJAMICglLm8xDfCDbs4+mI61BHDwLs4xhAYPemxMKzl83eeD+1X78e2y9fqdmvXuNxLA/DFLcJRHcewOm8SBWh01qlpE4pKp++cUIF7rGAn+Jr/nggNwcUEN2QSAErsdUDh7JEsAqoCAAhmFoCVlg0rlhuhOn+iUCOgVnnTEVJLARgDDs6EUt967KHDRuT8xgei+38NVZVxDZfQXWyWRYnW+n7rZS5Y2G5VvYvLAmRaLNYQOLZBd5E/30aVx5WcHryqNmpY2bHDpr1Kw9xLNMW5gDgjUlWSgT24UWzjy6ZbFcWJONpcSZzC4EcSqrQpa6RQs1qcscQbr6a2I2pmk0ovyI7B5tdPbYKjgf8nopALEonbjFxc4GJYa7OqLBXZwAkD6GhxF2ANOYATF0I8so7sVLd3vowtgtXEvdQaqHCcxBGCDiIxG1dSMOFuIYYuKyQBXt3pxHAvZawUAjR6ezXFrGkGLivcBjaAjACiDgBxp9XRgJ794zs3Jt1+/nLy/bz31btV69W7Z0zqG7qysBY1zm6hkst9YgEXKh0P4tA3B4TsXPejt0Ukxi3wjbUk7Es+TALJ7Iolo0pn7DlwtWGHEeioVpipy82pNI5E5cC53joGmekVRXfGQiD+wD6Kd2PLETCUDSCiTSAf+sJDYNhsGZeQLGk7oPzgb3xHmFJIHUNnHcl300pKXZblmrOS6WZbSaW80BM6TghDfaSqSdYuxXZeld/shLiVLYa5uAwGJYxquBR6bsfJfbqu1n63Qdi2IUsn2CYcjgCwhdWPvBgx8uy8pZq2ZR+ra54bzOK3a/o5SISbgNEqTJjWlSXMerbZ+puWd3r71XtzdN1e/csKhsonOGBea6WsA+btgoo53xI7sdthz8VwqgokjPYNNhuHlYrsV1Ly4FbXnz1RmJnr8R2aaTmxrHnLtc0TGvY5RGeV2RlGbs6B6TUeht2fR77LST9VAkLBljaApgrGriewBTUDqeCHSO+Y4zqpSr7V1luKK8up9LIVVQXvlXkdtno2H0szn+oaTWBMTk5nYG4FaG9qB/e2XlT7WcPbDJhCFaIYl2cyQwhrQKbYrTFe9+vsrRUtdEbEwwzt04HB6QSLCO1evNbnZENhVzBTztKm0hDbKpILQXi9sTDshGDbx1ySH5mhRkc7OK2QUS2xK/PNgmb4iYg8v0tC9xy/NqAZJsd/6wITHTeOf+9ZYFgTpU3YJo79AfARDehvV119tg5fHQ+ntoLQze8Nnl+BOIcz2cczFQjiS2D6MDTH2ZseDRAap1ZdiFOnk+ZzPF89nW6wNxDvr+pgAnTXTzcZlbbzSP2p275GY8F+L1zkAVCRbfklxEJjMwZvwJO9pvHfMa9ENWBelMX/0yHzm01R26XvHzrZStV4ll9R0fH5iDSUCe6ARUBNABjLfThvWZH9mcz3CxkOryvoG3ZBnqZLQ/WHDN7aanvJyJ3t5+yqxWLIkx3z/ZsIj3Z3pZaf2/qVlY9/EDBnjwV2RMnI3vsoYKdOBK5BUKDfYFb18c7KF61k8atZkSYgtwcALYbR+fH7qZAAGw0i51Y+Mlw1dtxCMH9aRNCPnOg2PZbNn3jesHEzs4tMLFVuCGqy8s3h/eF9tTDRXvhqbJ97emyPf94WUBGYmZqg1JzHhUAFKuseOvJVwxpE5vb2rPV/thQ15C7iWJ+LUBk/pMnhUwO35zNAKUu3JMOpiwAupW2ApkpPM6j413nqlyrmjvJ28IMTofs27ZARGg0z5mHBgK3vg82PnxcLDwaOXai6jyLBjyeS/MeCmsCd+8IracrtIF+lrGFtneIFygxDxlbXcWU8vo1xf1enbmJ0GZOASzA4UEZD8iY7zx32ezi1Wzek0VRLA5gOzqRLR5g/pPOdUuN1QYYuxpEXx2eCJRKsv/5703F20YuiBrwnjKM4/XafTsBKXUOp6wbcxyw+X1wT2onjwX21KmifVFs/dLjbfbsI2U7dazg3obiYRflaTCJ+/hKItjVJotbD6wjzQarrJ//vCDQfvO22X+/bPZfL5n97Ddmv3zN7KXfKb1l9up7Zu+eYylKxlReROKNAoCkblzTt98LP5m9cY+cs6ztCRell2Bcdxfg8bZT5rm9DWTLgsq9AvjBw4Gzm889WnTpyZNFe/BQaLvlnDjfvZwj+4mKeRvlxdlPXcuplgdoE2kth43jcQbPgniFjkcYLMl7T6AB3PtKZ8VS2Apr0R5ecUN70DjXnvxaK4DM95nUviMQW8XdgAY2f2TCLnYR9caLP/KgyYaaHJHJBGQP+3n1ljXRdAZl+S4EJ2LgvfDljzKMAGjAzPPXE9rWqjWo5s4Bs6OKIA7surXAgOdAPGAjzWm/rM7ar049fkCdfihbmIC2bdRxrJh1M9v5720LFUVdMMrNkYqSU8e8Eag0CyfpVdZz82rD8UOpAExtqN+DF2SM7gyspztwjWT9N0L+kFjRp45grY9n+QbtylBEVAhWc95+gffI8azzCMeoD53mrqUE0LuVB3gnjphsfcbG5nP0bLOmMEH7sZm4kaCCqCJq7tdKo/awDxWmkYWIFaepAvfAHjhUsMcfKkr1i7KhJXv6EW0VARxXfm8PbwJkjfb2s2krc3GdqVCKfBVz9/dMPC6ATglEwPSAunTs1j6rOQCZ9wDpQDpthQqvI/cURO7v6qDGuOW/eQIIz2QaCshDAvHU0YJzPoRMX3+2ZN94tmxffqKsxvE6GSDKbsJGrsFl+dMi/G59ZsQuS168SYFlj8qsPHnS7NlHzZ57TOlxs2e0/4UTaErmJOlobL6v52ZA3lMQvVAZwHIgaps11h/MepxPHvBeyUOHQ8WboT1xKts+dIQPbRCPZQ2D0TTSLeVrqT3v7g32Re6zB7y34tqt1nNPWA+zemQqeOESdQYsXismoe684sZHPDAl3Id6blU+ERB9b65OXgAUtctW8afy5qlCoMx+7tupEVJP6lTZL6TCnvZ1p87wZ5QkP7TDB0oadpZkHkK3ghW15j7edhMuASphGB1BeEWsipnBE3MPjrtzWuq3mXwiIG5FsJ2wDceCTcKOoYbEbBh4GkcZ52x0/IhGTKeOKikGPXEslE0r2KMK+nkNrbMtaDo6xHcaeMMwrgM7MSMkOtAD2NSQbch9A6JnJo1w41o1yo8WmiBov62YCuDAxZrf/UrZvv+NNvve18v2necL9vwXiElZkJ59ec+D6IVbuGvlW9jmk7+/325H7hsQEddAJcjgbGdLnstXBuCifg8oWH/mMcbuSk8W5RxCjYwI7rO36wFwPZVsvebqdCdyV0CkcWHAB9T4Sl2WshEI366hZndYu3UEVWRMzkuOhCS8CUUgzVCtNTQh+Q5ZUTclXzfq7hNtYLtduSsgUlk+VMEbmvVYqZHtZ58BpFbbq5mDHRCyn7cJtgvvzHBzoJcYU0NP2VKGbNi7ViC4Box0dVO9XN2UfN082L4NbLcrG4KYqmdS9ViqnjOlAHapgpFAIbmTAa8RadxZsNn5gk1OF+ym0oz2K8sFVbagRkU6j6UXnO8Z0JLUVJdaftP81jL+t2c8bIJVxI4+ZQxbCSK2canKG6Sq10zBJqYKNjXLNyIKrt4Amr2EFKpcQSSIHJDb6fZ1QXQdot4y3cRYGieGpa4HlaW7NFQCu81ca60e2WKlqAoW7dqNgl0fp7JFgVpUZYuqqMB0jMyv66qo5Hq+CWG2n//muGdx65ZjXAsmxQCgBBC3mK+iufA0zk1ALIY2LvCuTxRtdOJW3fiIER/cYOKBTxvMLxYEJCBmHb5VWedDGqoMAOoGwby2yxme9VJilbaGVdobxod9ywwd6uq9xaItzEXuzQDeeCqIFT1uZif7lg1fVurSOaWSWiTJKokNogbuvxXimQQgqCLlYBgdyIIq8ogZcTK+DFv9B9Qqn+iv/imDVWxXbxRdxyYpQTvv/WXdVlZ7+noaCqH4HoQArfF2fmy7Buvu2OpO8dL6IQ0+6bKSib41KmCo4WLJwqtlC06XrfFRyZYuFW1swuysuu5so2YjouGEevEm36yZNhsdD+3KaGjXxgK7cTO1kfHULo1kLy1OCeTKctEqSwK8kqk6JqBOJ4ipsVI9zpJjru7PflUqVlMZ/3tuQaZiLjufc0g1XadaK4pFYr6AgJ3OOysxUz2huly6ajauTkZtZ+dD++ii2XtnzUbGIhGnaJMzoUjAx+Cy83x0sBVZpc6CvQXItK7Dc0VLb5asMVWymmwJq/2n6olN607z6qaKyFVBHSrZ9BKfVOF7CjNzodQmtKujgV2+HogJkY3fLNiNyYJTqVExg/0J7KdAwU6RPzKW2a1p5WHDxnQO+TDphraU82WHR7N87PD4zcgd5xyATMU6Z69linhnhk8Vsjh1Kq8f33WcEnCoMcDy4jnllqv5BMZWEZSsArH1TFFWPxtS2dhk11LUgW8laEilmzQTJfUH2+O+VSMwl9y3DyObVmOHZSMvDCtdjez8cGTnrkT20aU8XYzsovJHBPDwaGQfnI/snTORnVUZfl8e0f5l5Z+L7O3TkZ2+IKAmIwGifZ376ruRvftR1Lz2GeUNXy84+6wxiIAInd32C/WZ/h8ZA1C8dGiRXDlzgqg+r7n5BQiuUcgWgbyNiZzHRbGBS2HJRks77WL7IbvSftDGyrusHnVbt3xzvxCU2bOykkyMUwEqQUIVsm/TBFK17JtdvMzNm1Qk9mEs+7xJSqPGJgM1UPZLzCVhErCxHCOfr4byOgfnzel6nDuav6HF8mYYNr8gJmG/k1DtUCX0Hx2Nh2b9uANJYPEPgEng5VWfxO/tygoQs0iCP1IDhSUTpQF7qfcp+4+h79pPd3zTXut7zuYF5mF5lYd1w4Ma0Q+ouOysYyOeGgfAJMHBvYkd2tvQEK1hPZ2xHEEsUGMZ7FgBcawBf+Ieq+JZZ+WMcEhVAV5TFOA+0jHqP9KR5QPmuBKvdVDFDjmqXjmBQsQ3brL4kO/W7trR0LG66iE9djzMOrUsZ7ejL7FjB2Pbt1tOTsNHHkqhPZxPmEMbXPO3KauYmDNYfxIZhdlit53uOWavDD5hbww8Zud7j1utbaftF4hHdbPdKqpBgol0bo4Pb9muEcNgfyIQY40mYtu/q2FD+t3RlrgG49natc/4Fu9NfMdSZd6kYp+vZNIo95KQGtkuqmdfzlSZeip7x0osVl4o0O7hWrAKUFPbPaROG4yVF6s+gJhpVhRlX7vjU1Y7B7NvPpR1XRTZsS8HjrE6JNiurHlKdk0F02p0ua1qHZ0VNXpJFV+2Drn+tqhoZZ3JG53M6RVUSTdnJ2D6uhMNyWI1MFaFG7Z/NxVnQpVPn2bedW4++8AkH+Al/OGDaSXCjd6G6wCGbnyLlg4Z6E1sj8DZL/b0ax+AcQxLy3wIKFK5UOdmH1/rbM+2BOGAB0iuc4VOpLEg0QEOifMp09OV3YupMcxPucibq1n45WSLrLwNRM5zFZBut4fLtq84ag+2XbDjbRftYPm69RUXFCMqtAjltdVtoSqDalAZhmC7BdygQOzqiK1fMdjeoVQqFogpfPMwFJCAGbk3C3q6GlL92Lq7Yqeau3QugA0NykzoWoNSvyHlHZBZePCItnv4Oh0f8MW+AURkHepNnuMwqZs97FLn5yiwKUiX+bBQRwehTyTbG9mMbHKHYsOhft1fnU7dmeztEpvbBCjnwc4tYrg62K6KKbygqBumZZtKBux87ZiNxztMUZr1hdN2ILxuh8Nr1hlWBGRoFY1WphYVa2lUwEtC9VigqeEH1WB6lY/vzoh5hDuzCtwZITB02+G+u504Q8/bVVSaxjC9P+2YFjrmYQpoDi9bzi5gLyNnN3vyGW7Uj0cGPTIN/VJvbGUxkgfRPTABhGTDo0WXsK1MTmBSOjRoQBN47AD4hGi8Ttena2BXMSGtqt4qq4PtNUDEgxEaFK0mIBeTDltOi6KsKmc16wik1koKiZ3dxPPV5BxYroENwzgzFYWNokd5R5kQgwZQhvLwhIlQZ+u0z3G2OAekztfjVI5pesoghB6cz3XcsXzEwrUc47RfcuNngM3O4S8eucJX6jRyScBWZQHejb3dOZktzDx39rtN9pIyawGIbAKiH/ah5QpYXRW5Ekl3yHOy3yvFweGLqqZUtimqDRXyhxEO4zVb85qSZ3CN1utwDTqJ46uPefGhjRd3KX9/kn5yuHm+L+sKIqvqvoZsPOxrCoDxWTx5uWZKlLhT824rhMq7l2SEzG2VyPNZckHs6FaCKbl8JbccozXlx7Mnd7cSv935MhP++OrkiraIO1P57t46z6fm+f5f8xrZeduRdUBEPJAZeD5tJhvVgQr6tFpas9hfrzEbXWMj8ecIu2w/z78bsgGIyErYvDJvJBvBjDq5AmsUWnmfvOxakp+/7vH1pLU85+e7d0M2ARG5xcO7IVT+4zTgTs935+mPt4t3U7YA4ueymXwO4scU54xi/i8YV//e6mM/sQGNLJZW/Y++HPW3bYA+21ImxNF2avGQLYXfzZkokPBa/HIjABIeTInRRTNvRSI/T5T5A0qMx8HGUSxN7f8BXPBTtGfKJ0QAAAAASUVORK5CYII=;" vertex="1" parent="1">
          <mxGeometry x="859.5" y="380" width="51" height="56.67" as="geometry" />
        </mxCell>
        <mxCell id="FCUGS_Y5EDNopGS5kR34-6" value="POWER BI SERVICES" style="text;html=1;align=center;verticalAlign=middle;resizable=0;points=[];autosize=1;strokeColor=none;fillColor=none;" vertex="1" parent="1">
          <mxGeometry x="800" y="436.67" width="150" height="30" as="geometry" />
        </mxCell>
        <mxCell id="FCUGS_Y5EDNopGS5kR34-9" value="" style="endArrow=none;html=1;rounded=0;entryX=0.5;entryY=1;entryDx=0;entryDy=0;" edge="1" parent="1" target="FCUGS_Y5EDNopGS5kR34-7">
          <mxGeometry width="50" height="50" relative="1" as="geometry">
            <mxPoint x="600" y="840" as="sourcePoint" />
            <mxPoint x="600" y="30" as="targetPoint" />
          </mxGeometry>
        </mxCell>
        <mxCell id="FCUGS_Y5EDNopGS5kR34-7" value="" style="outlineConnect=0;dashed=0;verticalLabelPosition=bottom;verticalAlign=top;align=center;html=1;shape=mxgraph.aws3.internet_gateway;fillColor=#F58534;gradientColor=none;" vertex="1" parent="1">
          <mxGeometry x="570.5" y="400" width="59" height="60" as="geometry" />
        </mxCell>
        <mxCell id="FCUGS_Y5EDNopGS5kR34-10" value="INTERNAL GATEWAY" style="text;html=1;align=center;verticalAlign=middle;resizable=0;points=[];autosize=1;strokeColor=none;fillColor=none;" vertex="1" parent="1">
          <mxGeometry x="530" y="460" width="140" height="30" as="geometry" />
        </mxCell>
        <mxCell id="FCUGS_Y5EDNopGS5kR34-18" style="edgeStyle=orthogonalEdgeStyle;rounded=0;orthogonalLoop=1;jettySize=auto;html=1;exitX=1;exitY=0.5;exitDx=0;exitDy=0;" edge="1" parent="1" source="FCUGS_Y5EDNopGS5kR34-11" target="FCUGS_Y5EDNopGS5kR34-15">
          <mxGeometry relative="1" as="geometry" />
        </mxCell>
        <mxCell id="FCUGS_Y5EDNopGS5kR34-11" value="" style="shape=datastore;whiteSpace=wrap;html=1;" vertex="1" parent="1">
          <mxGeometry x="760" y="590" width="40" height="40" as="geometry" />
        </mxCell>
        <mxCell id="FCUGS_Y5EDNopGS5kR34-19" style="edgeStyle=orthogonalEdgeStyle;rounded=0;orthogonalLoop=1;jettySize=auto;html=1;exitX=1;exitY=0.5;exitDx=0;exitDy=0;" edge="1" parent="1" source="FCUGS_Y5EDNopGS5kR34-12" target="FCUGS_Y5EDNopGS5kR34-15">
          <mxGeometry relative="1" as="geometry" />
        </mxCell>
        <mxCell id="FCUGS_Y5EDNopGS5kR34-12" value="" style="shape=datastore;whiteSpace=wrap;html=1;" vertex="1" parent="1">
          <mxGeometry x="760" y="660" width="40" height="40" as="geometry" />
        </mxCell>
        <mxCell id="FCUGS_Y5EDNopGS5kR34-20" style="edgeStyle=orthogonalEdgeStyle;rounded=0;orthogonalLoop=1;jettySize=auto;html=1;exitX=1;exitY=0.5;exitDx=0;exitDy=0;" edge="1" parent="1" source="FCUGS_Y5EDNopGS5kR34-13" target="FCUGS_Y5EDNopGS5kR34-15">
          <mxGeometry relative="1" as="geometry" />
        </mxCell>
        <mxCell id="FCUGS_Y5EDNopGS5kR34-13" value="" style="shape=datastore;whiteSpace=wrap;html=1;" vertex="1" parent="1">
          <mxGeometry x="760" y="730" width="40" height="40" as="geometry" />
        </mxCell>
        <mxCell id="FCUGS_Y5EDNopGS5kR34-14" value="DATASET / DATAFLOW" style="text;html=1;align=center;verticalAlign=middle;resizable=0;points=[];autosize=1;strokeColor=none;fillColor=none;" vertex="1" parent="1">
          <mxGeometry x="705" y="540" width="150" height="30" as="geometry" />
        </mxCell>
        <mxCell id="FCUGS_Y5EDNopGS5kR34-15" value="" style="verticalLabelPosition=bottom;sketch=0;aspect=fixed;html=1;verticalAlign=top;strokeColor=none;align=center;outlineConnect=0;shape=mxgraph.citrix.reporting;" vertex="1" parent="1">
          <mxGeometry x="940" y="645.5" width="61.5" height="69" as="geometry" />
        </mxCell>
        <mxCell id="FCUGS_Y5EDNopGS5kR34-24" value="SAP HANA" style="rounded=1;whiteSpace=wrap;html=1;fillColor=#dae8fc;strokeColor=#6c8ebf;" vertex="1" parent="1">
          <mxGeometry x="170" y="130" width="120" height="60" as="geometry" />
        </mxCell>
        <mxCell id="FCUGS_Y5EDNopGS5kR34-25" value="" style="image;sketch=0;aspect=fixed;html=1;points=[];align=center;fontSize=12;image=img/lib/mscae/SAP_HANA_on_Azure.svg;" vertex="1" parent="1">
          <mxGeometry x="170" y="120" width="50" height="25" as="geometry" />
        </mxCell>
        <mxCell id="FCUGS_Y5EDNopGS5kR34-26" value="SAP HANA" style="rounded=1;whiteSpace=wrap;html=1;fillColor=#dae8fc;strokeColor=#6c8ebf;" vertex="1" parent="1">
          <mxGeometry x="170" y="130" width="120" height="60" as="geometry" />
        </mxCell>
        <mxCell id="FCUGS_Y5EDNopGS5kR34-27" value="" style="image;sketch=0;aspect=fixed;html=1;points=[];align=center;fontSize=12;image=img/lib/mscae/SAP_HANA_on_Azure.svg;" vertex="1" parent="1">
          <mxGeometry x="170" y="120" width="50" height="25" as="geometry" />
        </mxCell>
        <mxCell id="FCUGS_Y5EDNopGS5kR34-32" value="" style="rounded=1;whiteSpace=wrap;html=1;" vertex="1" parent="1">
          <mxGeometry x="160" y="270" width="120" height="60" as="geometry" />
        </mxCell>
        <mxCell id="FCUGS_Y5EDNopGS5kR34-33" value="" style="rounded=1;whiteSpace=wrap;html=1;" vertex="1" parent="1">
          <mxGeometry x="170" y="400" width="120" height="60" as="geometry" />
        </mxCell>
        <mxCell id="FCUGS_Y5EDNopGS5kR34-34" value="" style="rounded=1;whiteSpace=wrap;html=1;" vertex="1" parent="1">
          <mxGeometry x="160" y="540" width="120" height="60" as="geometry" />
        </mxCell>
        <mxCell id="FCUGS_Y5EDNopGS5kR34-35" value="" style="rounded=1;whiteSpace=wrap;html=1;" vertex="1" parent="1">
          <mxGeometry x="135" y="660" width="120" height="60" as="geometry" />
        </mxCell>
      </root>
    </mxGraphModel>
  </diagram>
</mxfile>
